<svg xmlns="http://www.w3.org/2000/svg" viewBox="0 0 240 190" role="img" aria-label="Tesla logo">
  <defs>
    <filter id="glow" x="-30%" y="-30%" width="160%" height="160%">
      <feGaussianBlur stdDeviation="2.4" result="blur"/>
      <feMerge>
        <feMergeNode in="blur"/>
        <feMergeNode in="SourceGraphic"/>
      </feMerge>
    </filter>
  </defs>
  <g fill="#f04a43" filter="url(#glow)">
    <path d="M22 43C73 20 167 20 218 43l-8 18C160 43 80 43 30 61L22 43Z"/>
    <path d="M48 72C83 57 157 57 192 72l-11 19c-18-8-37-13-55-14l-6 8-6-8c-18 1-37 6-55 14L48 72Z"/>
    <path d="M101 75h38l-12 18-3 65-4 12-4-12-3-65-12-18Z"/>
    <path d="M112 89h16l-8 84-8-84Z"/>
  </g>
</svg>
