<svg xmlns="http://www.w3.org/2000/svg" viewBox="0 0 360 420" role="img" aria-label="原创火焰格斗家赤炎京">
  <defs>
    <linearGradient id="fire" x1="0" x2="1" y1="0" y2="1">
      <stop stop-color="#fff0a3"/><stop offset=".42" stop-color="#ff3d58"/><stop offset="1" stop-color="#7f1d1d"/>
    </linearGradient>
    <radialGradient id="glow" cx=".5" cy=".75" r=".55">
      <stop stop-color="#f4c75e" stop-opacity=".7"/><stop offset="1" stop-color="#ff3d58" stop-opacity="0"/>
    </radialGradient>
  </defs>
  <ellipse cx="180" cy="364" rx="126" ry="38" fill="url(#glow)"/>
  <path d="M129 85c-34 18-59 55-58 99 1 40 20 74 52 94l-17 87h146l-16-87c33-22 52-54 52-94 0-45-25-82-61-100 10 31-6 54-28 67 5-37-13-69-44-91 4 34-7 55-26 25Z" fill="url(#fire)" stroke="#f4c75e" stroke-width="5"/>
  <path d="M129 180c-28 25-45 62-49 116l52-11-4 65 55-86 54 86-5-66 54 12c-6-57-27-97-61-119-24 26-67 27-96 3Z" fill="#17111d" stroke="#f4c75e" stroke-width="4"/>
  <path d="M132 178c30 20 66 21 96 0l-8 78h-80Z" fill="#b91c1c"/>
  <circle cx="180" cy="92" r="48" fill="#f6b36d" stroke="#f4c75e" stroke-width="5"/>
  <path d="M133 85c18-45 76-55 104-17-34-7-58 8-81 38Z" fill="#2a0b0b"/>
  <path d="M112 226 59 260l34 28 54-39Zm136 22 54 40 34-28-55-35Z" fill="#f6b36d" stroke="#f4c75e" stroke-width="4"/>
  <path d="M51 258c31 2 53 16 66 42-35 0-59-13-66-42Zm258 42c13-26 35-40 66-42-7 29-31 42-66 42Z" fill="#ff3d58"/>
  <path d="M151 121h58M158 138h44" stroke="#2a0b0b" stroke-width="7" stroke-linecap="round"/>
</svg>
