<svg xmlns="http://www.w3.org/2000/svg" viewBox="0 0 360 420" role="img" aria-label="原创长袍奇袭格斗家苍袖Ash">
  <defs><linearGradient id="robe" x1="0" x2="1" y1="0" y2="1"><stop stop-color="#bfdbfe"/><stop offset=".38" stop-color="#dc2626"/><stop offset="1" stop-color="#1e3a8a"/></linearGradient></defs>
  <ellipse cx="180" cy="366" rx="130" ry="38" fill="#60a5fa" opacity=".25"/>
  <path d="M103 166c27-63 90-79 136-39 42 36 47 97 9 149l5 88H102l18-94c-29-37-35-70-17-104Z" fill="#111827" stroke="#bfdbfe" stroke-width="5"/>
  <path d="M114 195c42 37 88 38 133 4l44 42-69 23 41 100H94l43-100-70-23Z" fill="url(#robe)" stroke="#dbeafe" stroke-width="4"/>
  <circle cx="183" cy="99" r="44" fill="#dfaa7a" stroke="#dbeafe" stroke-width="5"/>
  <path d="M141 88c32-42 78-44 108-8-36-3-64 12-88 43Z" fill="#cbd5e1"/>
  <path d="M92 211 36 183l-8 45 79 36Zm160 53 79-36-8-45-56 28Z" fill="#dfaa7a" stroke="#dbeafe" stroke-width="4"/>
  <path d="M27 228c34-16 64-11 88 16-32 24-62 19-88-16Zm218 16c24-27 54-32 88-16-26 35-56 40-88 16Z" fill="#93c5fd"/>
</svg>
