<svg xmlns="http://www.w3.org/2000/svg" viewBox="0 0 360 420" role="img" aria-label="原创青发高速压制格斗家电神雅典娜">
  <defs><linearGradient id="idol" x1="0" x2="1" y1="0" y2="1"><stop stop-color="#a7f3d0"/><stop offset=".5" stop-color="#10b981"/><stop offset="1" stop-color="#0891b2"/></linearGradient></defs>
  <ellipse cx="180" cy="366" rx="126" ry="38" fill="#22d3ee" opacity=".26"/>
  <path d="M107 157c28-55 77-67 118-34 42 35 46 89 18 137l15 104H101l16-104c-28-37-31-72-10-103Z" fill="url(#idol)" stroke="#a7f3d0" stroke-width="5"/>
  <circle cx="180" cy="99" r="43" fill="#e7aa82" stroke="#a7f3d0" stroke-width="5"/>
  <path d="M137 87c27-42 79-48 111-7-33 0-61 18-84 51Z" fill="#06b6d4"/>
  <path d="M126 195c34 30 77 30 115 0l-20 87h-78Z" fill="#064e3b"/>
  <path d="M112 225 58 184l-18 41 70 49Zm138 49 70-49-18-41-54 41Z" fill="#e7aa82" stroke="#a7f3d0" stroke-width="4"/>
  <path d="M39 225c35-17 66-12 91 16-32 26-63 20-91-16Zm191 16c25-28 56-33 91-16-28 36-59 42-91 16Z" fill="#22d3ee"/>
  <path d="m176 132-21 56 32-7-17 55 49-83-31 7 18-28Z" fill="#fef08a"/>
</svg>
