<svg xmlns="http://www.w3.org/2000/svg" viewBox="0 0 360 420" role="img" aria-label="原创空手道少女极拳尤莉">
  <defs><linearGradient id="karate" x1="0" x2="1" y1="0" y2="1"><stop stop-color="#fff"/><stop offset=".5" stop-color="#c4b5fd"/><stop offset="1" stop-color="#7c3aed"/></linearGradient></defs>
  <ellipse cx="180" cy="366" rx="125" ry="38" fill="#f472b6" opacity=".24"/>
  <path d="M111 155c21-55 76-74 119-37 38 33 45 86 19 138l8 108H101l15-105c-25-36-27-72-5-104Z" fill="url(#karate)" stroke="#ffffff" stroke-width="5"/>
  <circle cx="181" cy="98" r="43" fill="#e7aa82" stroke="#ffffff" stroke-width="5"/>
  <path d="M140 86c27-42 72-43 104-6-31 2-57 17-78 45Z" fill="#581c87"/>
  <path d="M118 206c36 24 82 24 124 0l-16 72h-91Z" fill="#ffffff"/>
  <path d="M107 230 52 201l-11 44 72 34Zm146 49 72-34-11-44-55 29Z" fill="#e7aa82" stroke="#ffffff" stroke-width="4"/>
  <path d="M39 245c31-18 61-16 88 6-25 29-56 27-88-6Zm194 6c27-22 57-24 88-6-32 33-63 35-88 6Z" fill="#7c3aed"/>
  <path d="M143 132h75" stroke="#581c87" stroke-width="7" stroke-linecap="round"/>
</svg>
