<svg xmlns="http://www.w3.org/2000/svg" viewBox="0 0 360 420" role="img" aria-label="原创黑狮王者格斗家黑狮卢卡">
  <defs><linearGradient id="king" x1="0" x2="1" y1="0" y2="1"><stop stop-color="#f5d0fe"/><stop offset=".45" stop-color="#312e81"/><stop offset="1" stop-color="#020617"/></linearGradient></defs>
  <ellipse cx="180" cy="366" rx="130" ry="38" fill="#a855f7" opacity=".22"/>
  <path d="M117 150c20-47 62-70 105-52 44 18 62 58 44 116l-31 150H119L91 216c-9-30-1-52 26-66Z" fill="url(#king)" stroke="#d8b4fe" stroke-width="5"/>
  <circle cx="186" cy="96" r="42" fill="#c99a72" stroke="#e9d5ff" stroke-width="5"/>
  <path d="M145 79c33-36 80-34 107 3-36-7-65 5-86 35Z" fill="#f8fafc"/>
  <path d="M82 221c-39 31-47 83-18 121 25 32 80 27 96-13 19-47-19-92-78-108Z" fill="#020617" stroke="#64748b" stroke-width="4"/>
  <path d="M96 247c-25 24-27 54-9 70 22 18 55 3 57-28 2-24-15-38-48-42Z" fill="#111827"/>
  <path d="M113 270c-18 6-26 21-24 38 25-19 45-21 67-4-8-24-21-36-43-34Z" fill="#1f2937"/>
  <path d="M108 229 43 241l11 43 72-21Zm144 34 72 21 11-43-65-12Z" fill="#c99a72" stroke="#e9d5ff" stroke-width="4"/>
  <path d="M136 194h95v170h-95z" fill="#0f172a" opacity=".7"/>
</svg>
