<svg xmlns="http://www.w3.org/2000/svg" viewBox="0 0 360 420" role="img" aria-label="原创陷阱反制格斗家忍姬舞">
  <defs>
    <linearGradient id="jade" x1="0" x2="1" y1="0" y2="1">
      <stop stop-color="#dcfce7"/><stop offset=".45" stop-color="#2dfc8c"/><stop offset="1" stop-color="#064e3b"/>
    </linearGradient>
  </defs>
  <ellipse cx="180" cy="365" rx="124" ry="38" fill="#2dfc8c" opacity=".24"/>
  <path d="M114 152c20-54 72-80 116-52 47 30 50 86 20 145l-4 119H115l1-119c-25-36-26-67-2-93Z" fill="#101827" stroke="#bbf7d0" stroke-width="5"/>
  <path d="M111 198c38 42 94 43 139 0l39 53-65 26 35 87H103l34-87-65-26Z" fill="url(#jade)" stroke="#bbf7d0" stroke-width="4"/>
  <circle cx="181" cy="101" r="43" fill="#e4aa7b" stroke="#bbf7d0" stroke-width="5"/>
  <path d="M139 88c35-45 85-43 111-3-34-4-63 7-88 36Z" fill="#064e3b"/>
  <path d="M107 224 52 252l26 39 69-42Zm106 25 69 42 26-39-55-28Z" fill="#e4aa7b" stroke="#bbf7d0" stroke-width="4"/>
  <path d="M48 252c31-7 58 1 80 25-32 16-58 8-80-25Zm184 25c22-24 49-32 80-25-22 33-48 41-80 25Z" fill="#2dfc8c"/>
  <path d="M128 186c35 16 72 15 109-2" stroke="#bbf7d0" stroke-width="6" stroke-linecap="round"/>
  <path d="M154 130h54" stroke="#052e25" stroke-width="7" stroke-linecap="round"/>
</svg>
