<svg xmlns="http://www.w3.org/2000/svg" viewBox="0 0 360 420" role="img" aria-label="原创暗炎奇袭格斗家紫炎庵">
  <defs>
    <linearGradient id="violet" x1="0" x2="1" y1="0" y2="1">
      <stop stop-color="#f0abfc"/><stop offset=".48" stop-color="#7c3aed"/><stop offset="1" stop-color="#111827"/>
    </linearGradient>
    <radialGradient id="shade" cx=".5" cy=".75" r=".55">
      <stop stop-color="#a855f7" stop-opacity=".7"/><stop offset="1" stop-color="#111827" stop-opacity="0"/>
    </radialGradient>
  </defs>
  <ellipse cx="180" cy="365" rx="124" ry="38" fill="url(#shade)"/>
  <path d="M111 142c13-49 49-79 89-76 51 4 85 44 84 96-2 67-39 94-30 201H105c16-94-14-139 6-221Z" fill="url(#violet)" stroke="#d8b4fe" stroke-width="5"/>
  <path d="M107 202c-28 26-41 71-35 133l54-35 12 57 46-90 51 91 9-58 55 34c5-72-15-118-58-139-27 30-91 31-134 7Z" fill="#0b0713" stroke="#a855f7" stroke-width="4"/>
  <circle cx="190" cy="103" r="45" fill="#e2a772" stroke="#d8b4fe" stroke-width="5"/>
  <path d="M147 75c35-42 88-31 105 15-29-18-59-8-91 28Z" fill="#13071f"/>
  <path d="M129 151c39 29 80 28 118-4l-14 105h-92Z" fill="#312e81"/>
  <path d="M124 224 62 237l17 42 73-22Zm112 33 73 22 17-42-62-13Z" fill="#e2a772" stroke="#d8b4fe" stroke-width="4"/>
  <path d="M72 235c30-17 58-16 83 2-26 28-55 30-83-2Zm133 2c25-18 53-19 83-2-28 32-57 30-83 2Z" fill="#a855f7"/>
  <path d="M157 124c15 9 34 9 53 0" stroke="#13071f" stroke-width="7" stroke-linecap="round"/>
</svg>
