<svg xmlns="http://www.w3.org/2000/svg" viewBox="0 0 360 420" role="img" aria-label="原创冷焰格斗家银焰K">
  <defs><linearGradient id="g" x1="0" x2="1" y1="0" y2="1"><stop stop-color="#eff6ff"/><stop offset=".48" stop-color="#ef4444"/><stop offset="1" stop-color="#111827"/></linearGradient></defs>
  <ellipse cx="180" cy="366" rx="128" ry="38" fill="#93c5fd" opacity=".24"/>
  <path d="M102 162c25-55 58-75 101-61 47 16 66 54 53 112l-20 151H119l-18-87c-22-37-22-78 1-115Z" fill="#111827" stroke="#e5e7eb" stroke-width="5"/>
  <path d="M117 209c40 28 84 31 130 3l26 55-48 18 25 79H110l25-79-48-18Z" fill="url(#g)" stroke="#ffffff" stroke-width="4"/>
  <circle cx="184" cy="100" r="45" fill="#eab48a" stroke="#e5e7eb" stroke-width="5"/>
  <path d="M130 91c34-48 99-55 125-8-44-11-77 3-106 36Z" fill="#e5e7eb"/>
  <path d="M105 226 54 196l-15 43 68 38Zm148 51 68-38-15-43-51 30Z" fill="#eab48a" stroke="#e5e7eb" stroke-width="4"/>
  <path d="M38 239c30-20 60-20 88 0-23 30-53 30-88 0Zm196 0c28-20 58-20 88 0-35 30-65 30-88 0Z" fill="#60a5fa"/>
  <path d="M150 130h70" stroke="#0f172a" stroke-width="8" stroke-linecap="round"/>
</svg>
