<svg xmlns="http://www.w3.org/2000/svg" viewBox="0 0 360 420" role="img" aria-label="原创力量反击格斗家饿狼特瑞">
  <defs>
    <linearGradient id="gold" x1="0" x2="1" y1="0" y2="1">
      <stop stop-color="#fff7ad"/><stop offset=".42" stop-color="#f59e0b"/><stop offset="1" stop-color="#7c2d12"/>
    </linearGradient>
  </defs>
  <ellipse cx="180" cy="364" rx="130" ry="38" fill="#f4c75e" opacity=".28"/>
  <path d="M84 198c8-79 47-118 97-118s89 39 97 118l-38 166H120Z" fill="#1f2937" stroke="#f4c75e" stroke-width="5"/>
  <path d="M114 189c26 35 107 35 134 0l31 57-44 42 22 76H103l22-76-44-42Z" fill="url(#gold)" stroke="#fff0a3" stroke-width="5"/>
  <circle cx="181" cy="100" r="46" fill="#e5a267" stroke="#fff0a3" stroke-width="5"/>
  <path d="M135 82c17-45 84-58 111-13l-27 14 28 17c-45 5-82 0-112-18Z" fill="#b91c1c"/>
  <path d="M97 220 39 269l42 30 63-54Zm166 25 63 54 42-30-58-49Z" fill="#e5a267" stroke="#fff0a3" stroke-width="4"/>
  <path d="M42 268c35-2 60 10 76 36-36 5-63-7-76-36Zm242 36c16-26 41-38 76-36-13 29-40 41-76 36Z" fill="#facc15"/>
  <path d="M145 129h74" stroke="#26140a" stroke-width="8" stroke-linecap="round"/>
</svg>
